<svg width="445" height="364" viewBox="0 0 445 364" fill="none" xmlns="http://www.w3.org/2000/svg">
<path fill-rule="evenodd" clip-rule="evenodd" d="M57.0759 291.703C287.661 279.987 412.658 141.218 483.591 4.49738L478.5 0.950958C408.345 136.172 284.973 273.234 56.8157 284.827L57.0759 291.703Z" fill="white" fill-opacity="0.17"/>
<path fill-rule="evenodd" clip-rule="evenodd" d="M153.048 274.974C154.375 274.974 126.227 323.714 92.9806 337.797L153.048 274.974Z" fill="white" fill-opacity="0.17"/>
<path fill-rule="evenodd" clip-rule="evenodd" d="M154.859 272.231C154.235 271.687 153.561 271.531 153.048 271.531V278.414C152.556 278.414 151.899 278.264 151.288 277.731C150.687 277.208 150.393 276.541 150.258 276.049C150.038 275.245 150.149 274.587 150.169 274.472L150.17 274.463C150.201 274.276 150.241 274.14 150.26 274.081C150.258 274.086 150.256 274.092 150.254 274.099C150.184 274.275 150.005 274.67 149.668 275.317C149.015 276.572 147.943 278.45 146.486 280.799C143.579 285.485 139.219 291.911 133.79 298.778C122.866 312.593 107.909 327.807 91.9611 334.563L94.0003 341.027C111.299 333.7 127.039 317.503 138.169 303.427C143.767 296.349 148.273 289.71 151.309 284.817C152.823 282.376 153.993 280.336 154.755 278.871C155.126 278.158 155.447 277.492 155.661 276.947C155.747 276.727 155.917 276.278 156.003 275.762L156.004 275.758C156.034 275.573 156.157 274.834 155.919 273.966C155.778 273.45 155.473 272.767 154.859 272.231ZM150.272 274.05C150.271 274.05 150.267 274.061 150.26 274.081C150.269 274.06 150.272 274.05 150.272 274.05Z" fill="white" fill-opacity="0.17"/>
<path fill-rule="evenodd" clip-rule="evenodd" d="M95.5234 336.654C95.6116 339.122 93.2458 365.661 59.4802 360.562L95.5234 336.654Z" fill="white" fill-opacity="0.17"/>
<path fill-rule="evenodd" clip-rule="evenodd" d="M96.5683 342.823C97.3571 339.874 97.5349 337.487 97.5016 336.555L93.5455 336.745C93.5563 337.047 93.4714 338.903 92.7863 341.465C92.1128 343.983 90.8892 347.065 88.7126 349.924C84.4494 355.523 76.1365 360.76 59.7363 358.283L59.2246 362.833C76.5898 365.455 86.3427 359.972 91.6817 352.959C94.3061 349.512 95.7678 345.816 96.5683 342.823Z" fill="white" fill-opacity="0.17"/>
<path fill-rule="evenodd" clip-rule="evenodd" d="M60.0736 290.871C61.4883 290.363 77.2946 287.476 80.3546 314.668L60.0736 290.871Z" fill="white" fill-opacity="0.17"/>
<path fill-rule="evenodd" clip-rule="evenodd" d="M63.429 289.969C61.6556 289.884 60.3426 290.164 59.9222 290.315L60.223 291.439C60.51 291.336 61.7034 291.064 63.3871 291.145C65.0608 291.225 67.1913 291.652 69.3692 292.914C73.6936 295.42 78.3365 301.297 79.8504 314.75L80.8571 314.598C79.3109 300.859 74.5206 294.584 69.8232 291.862C67.4901 290.51 65.2126 290.055 63.429 289.969Z" fill="white" fill-opacity="0.17"/>
<path fill-rule="evenodd" clip-rule="evenodd" d="M67.3214 286.219C66.7415 285.147 61.0874 273.608 77.2332 265.94L67.3214 286.219Z" fill="white" fill-opacity="0.17"/>
<path fill-rule="evenodd" clip-rule="evenodd" d="M64.3057 278.248C63.6789 282.932 65.4948 286.594 65.8642 287.277L68.7786 285.161C68.5681 284.772 67.267 282.129 67.7046 278.858C68.1156 275.787 70.1703 271.448 77.8854 267.785L76.5812 264.097C68.1503 268.1 64.9591 273.365 64.3057 278.248Z" fill="white" fill-opacity="0.17"/>
<path fill-rule="evenodd" clip-rule="evenodd" d="M95.5234 336.655C95.6116 339.123 90.208 340.166 59.4802 360.562L95.5234 336.655Z" fill="white" fill-opacity="0.17"/>
<path fill-rule="evenodd" clip-rule="evenodd" d="M95.3589 340.461C96.3761 339.664 97.5707 338.498 97.5014 336.557L93.5453 336.747C93.5337 336.424 93.6434 336.225 93.676 336.175C93.6421 336.218 93.5046 336.375 93.1408 336.66C92.2843 337.332 90.7804 338.261 88.145 339.847C87.7984 340.056 87.4345 340.274 87.0526 340.504C81.7189 343.71 72.8672 349.03 58.4961 358.569L60.4642 362.551C74.7645 353.058 83.5602 347.772 88.8776 344.576C89.2596 344.346 89.6236 344.127 89.9704 343.919C92.5159 342.386 94.2668 341.317 95.3589 340.461ZM93.685 336.163C93.6847 336.163 93.6814 336.167 93.676 336.175C93.6826 336.167 93.6853 336.163 93.685 336.163Z" fill="white" fill-opacity="0.17"/>
<path fill-rule="evenodd" clip-rule="evenodd" d="M60.0736 290.871C61.4883 290.363 63.056 294.383 80.3546 314.668L60.0736 290.871Z" fill="white" fill-opacity="0.17"/>
<path fill-rule="evenodd" clip-rule="evenodd" d="M61.7393 291.08C61.1131 290.447 60.5559 290.082 59.9222 290.31L60.223 291.434C60.2968 291.407 60.466 291.354 61.0722 291.966C61.6609 292.561 62.507 293.619 63.8813 295.369C64.064 295.601 64.2557 295.846 64.4568 296.102C67.2628 299.679 71.9147 305.61 79.9926 315.082L80.7147 314.255C72.6516 304.8 68.0105 298.883 65.2077 295.31C65.0065 295.054 64.8149 294.81 64.6321 294.577C63.2753 292.849 62.383 291.73 61.7393 291.08Z" fill="white" fill-opacity="0.17"/>
<path fill-rule="evenodd" clip-rule="evenodd" d="M67.3209 286.219C66.7411 285.146 68.9173 283.092 78.124 264.97L67.3209 286.219Z" fill="white" fill-opacity="0.17"/>
<path fill-rule="evenodd" clip-rule="evenodd" d="M65.9271 284.115C65.6409 284.788 65.1919 286.035 65.8638 287.277L68.7786 285.162C69.0137 285.596 68.9546 285.986 68.932 286.086C68.9423 286.053 68.966 285.985 69.0126 285.876C69.2243 285.378 69.6626 284.568 70.4977 283.069C70.6062 282.874 70.7202 282.67 70.8399 282.455C72.5131 279.456 75.293 274.472 79.6062 265.982L76.6422 263.96C72.3649 272.379 69.6148 277.309 67.9503 280.294C67.8306 280.508 67.7165 280.713 67.6078 280.908C66.8205 282.321 66.248 283.36 65.9271 284.115ZM68.9252 286.111C68.9257 286.111 68.9284 286.102 68.932 286.086C68.9266 286.104 68.9248 286.112 68.9252 286.111Z" fill="white" fill-opacity="0.17"/>
<path fill-rule="evenodd" clip-rule="evenodd" d="M95.5235 336.655C95.6117 339.122 69.3585 322.805 59.4802 360.562L95.5235 336.655Z" fill="white" fill-opacity="0.17"/>
<path fill-rule="evenodd" clip-rule="evenodd" d="M96.67 338.64C97.2648 338.105 97.5283 337.31 97.5013 336.555L93.5452 336.744C93.5237 336.144 93.7412 335.466 94.2413 335.016C94.6101 334.684 94.9602 334.638 95.0138 334.631L95.0157 334.631C95.0498 334.626 95.0695 334.625 95.0695 334.624C95.0695 334.622 94.9725 334.619 94.7204 334.572C94.3286 334.499 93.8728 334.387 93.2957 334.246C92.8462 334.136 92.3232 334.007 91.6996 333.865C89.0279 333.257 85.218 332.578 81.0321 333.088C76.8192 333.601 72.2134 335.321 68.0041 339.497C63.8039 343.664 60.1371 350.138 57.5854 359.891L61.3747 361.223C63.7622 352.097 67.0814 346.452 70.5791 342.982C74.0678 339.521 77.8719 338.087 81.4461 337.651C85.0472 337.212 88.4014 337.79 90.9361 338.368C91.4021 338.474 91.8735 338.588 92.3204 338.697C93.0039 338.863 93.6297 339.015 94.0896 339.101C94.4527 339.169 94.9779 339.254 95.4673 339.189C95.7037 339.158 96.2016 339.061 96.67 338.64Z" fill="white" fill-opacity="0.17"/>
<path fill-rule="evenodd" clip-rule="evenodd" d="M60.0736 290.871C61.4883 290.363 56.7062 313.706 80.3546 314.668L60.0736 290.871Z" fill="white" fill-opacity="0.17"/>
<path fill-rule="evenodd" clip-rule="evenodd" d="M60.4967 290.426C60.3222 290.272 60.1107 290.244 59.9231 290.311L60.2239 291.435C60.1248 291.471 59.9896 291.457 59.8814 291.362C59.8197 291.307 59.7986 291.253 59.7988 291.252C59.7989 291.252 59.8 291.255 59.802 291.261C59.8223 291.321 59.8507 291.472 59.8761 291.768C59.9049 292.103 59.9234 292.519 59.9457 293.022C59.9622 293.393 59.9808 293.812 60.0072 294.28C60.1285 296.433 60.4066 299.402 61.4021 302.43C62.4001 305.465 64.1204 308.563 67.1199 310.959C70.1168 313.352 74.3522 315.014 80.3368 315.258L80.3724 314.082C74.5328 313.845 70.4978 312.228 67.696 309.99C64.8968 307.754 63.2901 304.868 62.3508 302.011C61.4089 299.146 61.1392 296.315 61.0203 294.203C60.9966 293.783 60.9785 293.38 60.9619 293.01C60.9378 292.475 60.9169 292.007 60.8863 291.652C60.8609 291.357 60.8239 291.058 60.7472 290.831C60.7097 290.72 60.6386 290.551 60.4967 290.426Z" fill="white" fill-opacity="0.17"/>
<path fill-rule="evenodd" clip-rule="evenodd" d="M67.3214 286.219C66.7416 285.147 82.0032 283.114 78.1244 263.401L67.3214 286.219Z" fill="white" fill-opacity="0.17"/>
<path fill-rule="evenodd" clip-rule="evenodd" d="M65.7043 285.407C65.5026 286.023 65.5584 286.711 65.864 287.276L68.7784 285.159C69.0477 285.657 69.0983 286.276 68.9201 286.821C68.7835 287.238 68.561 287.462 68.51 287.513C68.4512 287.572 68.4088 287.601 68.4089 287.602C68.409 287.602 68.4408 287.58 68.5211 287.535C68.7044 287.433 68.9178 287.33 69.2024 287.191C69.4194 287.086 69.6778 286.96 69.9958 286.8C71.3377 286.124 73.2406 285.066 75.0525 283.338C76.878 281.598 78.6204 279.169 79.6189 275.774C80.6167 272.381 80.8276 268.174 79.801 262.957L76.4476 263.843C77.3604 268.482 77.1181 271.922 76.3633 274.488C75.6093 277.052 74.2998 278.894 72.8672 280.26C71.421 281.639 69.8595 282.522 68.6242 283.145C68.4226 283.246 68.2082 283.351 67.9984 283.454C67.6321 283.633 67.28 283.805 67.0349 283.941C66.854 284.041 66.5367 284.223 66.2692 284.489C66.1392 284.619 65.8644 284.918 65.7043 285.407Z" fill="white" fill-opacity="0.17"/>
<path fill-rule="evenodd" clip-rule="evenodd" d="M366.963 202.945C368.879 205.459 386.94 250.599 346.631 263.918L366.963 202.945Z" fill="white" fill-opacity="0.17"/>
<path fill-rule="evenodd" clip-rule="evenodd" d="M368.835 203.027C368.604 202.549 368.354 202.077 368.115 201.764L365.811 204.122C365.809 204.118 365.808 204.117 365.808 204.117C365.807 204.117 365.837 204.16 365.898 204.269C365.964 204.388 366.05 204.552 366.152 204.765C366.357 205.189 366.611 205.767 366.898 206.485C367.47 207.921 368.153 209.875 368.8 212.204C370.098 216.871 371.232 222.96 371.095 229.334C370.959 235.696 369.561 242.282 365.85 248.061C362.144 253.831 356.03 258.959 346.209 262.204L347.052 265.629C357.386 262.214 364.13 256.705 368.316 250.187C372.495 243.678 374.02 236.324 374.168 229.422C374.315 222.532 373.094 216.031 371.726 211.112C371.04 208.646 370.313 206.558 369.688 204.991C369.376 204.209 369.086 203.547 368.835 203.027Z" fill="white" fill-opacity="0.17"/>
<path fill-rule="evenodd" clip-rule="evenodd" d="M56.9458 283.795C55.0416 286.322 18.7471 312.908 2.14136 268.31L56.9458 283.795Z" fill="white" fill-opacity="0.17"/>
<path fill-rule="evenodd" clip-rule="evenodd" d="M57.0561 285.863C57.435 285.537 57.7987 285.194 58.0278 284.89L55.864 282.701C55.8663 282.697 55.8662 282.698 55.8634 282.701C55.8543 282.711 55.8175 282.753 55.7385 282.831C55.6432 282.925 55.5117 283.046 55.3421 283.192C55.0032 283.484 54.539 283.853 53.9595 284.277C52.8016 285.122 51.2137 286.162 49.3011 287.208C45.4681 289.306 40.3932 291.401 34.9065 292.069C29.4295 292.736 23.5911 291.979 18.1437 288.447C12.704 284.92 7.51266 278.534 3.46018 267.65L0.82251 268.969C5.0729 280.384 10.6456 287.4 16.7409 291.352C22.8287 295.299 29.2965 296.1 35.2069 295.38C41.1076 294.661 46.5013 292.422 50.528 290.218C52.5453 289.114 54.235 288.01 55.4913 287.093C56.1189 286.634 56.646 286.217 57.0561 285.863Z" fill="white" fill-opacity="0.17"/>
<path fill-rule="evenodd" clip-rule="evenodd" d="M59.4488 286.025C59.9125 288.149 54.9356 323.867 19.1086 326.977L59.4488 286.025Z" fill="white" fill-opacity="0.17"/>
<path fill-rule="evenodd" clip-rule="evenodd" d="M61.2841 286.928C61.3032 286.56 61.3211 285.994 61.2147 285.507L57.6818 286.543C57.6594 286.44 57.6545 286.377 57.6537 286.377C57.6527 286.377 57.6574 286.463 57.6464 286.673C57.6311 286.968 57.5919 287.393 57.5177 287.937C57.3697 289.022 57.0926 290.511 56.6343 292.273C55.7173 295.799 54.0926 300.355 51.3839 304.938C46.0046 314.039 36.2876 323.368 18.972 324.871L19.2442 329.082C37.7556 327.476 48.4405 317.391 54.3905 307.324C57.3464 302.323 59.1182 297.357 60.1235 293.491C60.6264 291.558 60.9419 289.883 61.1173 288.596C61.2047 287.955 61.26 287.391 61.2841 286.928Z" fill="white" fill-opacity="0.17"/>
<path fill-rule="evenodd" clip-rule="evenodd" d="M67.804 287.262C65.95 287.689 35.5738 281.141 34.7455 239.519L67.804 287.262Z" fill="white" fill-opacity="0.17"/>
<path fill-rule="evenodd" clip-rule="evenodd" d="M67.0797 287.977C67.4023 288.012 67.7122 288.025 67.9269 287.975L67.6828 286.552C67.6837 286.552 67.6834 286.552 67.6818 286.552C67.6741 286.553 67.6359 286.558 67.5547 286.557C67.465 286.556 67.3451 286.549 67.1946 286.533C66.894 286.501 66.4921 286.436 66.0014 286.329C65.0211 286.116 63.7067 285.741 62.1715 285.149C59.1005 283.964 55.1653 281.917 51.2628 278.577C43.4786 271.915 35.7814 260.076 35.372 239.504L34.1205 239.537C34.5394 260.587 42.4445 272.833 50.519 279.744C54.5459 283.19 58.6041 285.302 61.776 286.525C63.3623 287.137 64.7316 287.529 65.7706 287.755C66.2896 287.868 66.7312 287.94 67.0797 287.977Z" fill="white" fill-opacity="0.17"/>
<path fill-rule="evenodd" clip-rule="evenodd" d="M146.746 226.715C146.109 223.442 125.115 180.04 92.189 210.097L146.746 226.715Z" fill="white" fill-opacity="0.17"/>
<path fill-rule="evenodd" clip-rule="evenodd" d="M144.875 227.19C144.882 227.213 144.883 227.217 144.88 227.203L148.611 226.23C148.522 225.773 148.323 225.224 148.123 224.726C147.902 224.174 147.604 223.503 147.236 222.744C146.498 221.225 145.456 219.303 144.124 217.201C141.467 213.009 137.607 208.014 132.657 204.082C127.696 200.14 121.585 197.225 114.488 197.339C107.38 197.454 99.4985 200.606 91.0057 208.358L93.3719 211.839C101.342 204.563 108.433 201.868 114.541 201.77C120.661 201.671 126.012 204.175 130.495 207.736C134.988 211.306 138.554 215.897 141.042 219.824C142.282 221.781 143.241 223.553 143.903 224.916C144.234 225.598 144.484 226.166 144.656 226.594C144.796 226.944 144.856 227.131 144.875 227.19Z" fill="white" fill-opacity="0.17"/>
<path fill-rule="evenodd" clip-rule="evenodd" d="M366.963 202.945C368.879 205.459 363.954 211.921 346.631 263.918L366.963 202.945Z" fill="white" fill-opacity="0.17"/>
<path fill-rule="evenodd" clip-rule="evenodd" d="M368.501 206.736C368.975 204.919 369.181 203.164 368.114 201.765L365.811 204.122C365.809 204.118 365.806 204.112 365.803 204.104C365.803 204.102 365.803 204.101 365.802 204.1C365.802 204.099 365.811 204.129 365.813 204.212C365.82 204.439 365.774 204.88 365.559 205.703C365.128 207.353 364.195 209.909 362.601 214.165C362.39 214.729 362.168 215.32 361.935 215.941C358.683 224.608 353.29 238.982 345.196 263.276L348.064 264.559C356.134 240.333 361.508 226.011 364.755 217.359C364.987 216.739 365.209 216.147 365.42 215.584C366.983 211.411 368.006 208.63 368.501 206.736Z" fill="white" fill-opacity="0.17"/>
<path fill-rule="evenodd" clip-rule="evenodd" d="M56.9458 283.799C55.0416 286.326 48.8753 281.501 2.14136 268.314L56.9458 283.799Z" fill="white" fill-opacity="0.17"/>
<path fill-rule="evenodd" clip-rule="evenodd" d="M53.9162 285.942C55.5293 286.252 57.0064 286.249 58.0278 284.894L55.864 282.704L55.854 282.716L55.8514 282.719C55.8517 282.719 55.8517 282.719 55.8511 282.72M53.9162 285.942C52.2383 285.619 49.7334 284.806 45.958 283.549L53.9162 285.942ZM45.958 283.549C45.4477 283.379 44.9123 283.2 44.3506 283.012L45.958 283.549ZM44.3506 283.012C36.5268 280.4 23.5755 276.075 1.80151 269.931L44.3506 283.012ZM1.80151 269.931L2.4812 266.696L1.80151 269.931ZM2.4812 266.696C24.3127 272.857 37.308 277.196 45.1445 279.813L2.4812 266.696ZM45.1445 279.813C45.7063 280.001 46.2416 280.179 46.7517 280.349L45.1445 279.813ZM46.7517 280.349C50.5976 281.631 52.9122 282.374 54.3865 282.658L46.7517 280.349ZM54.3865 282.658C55.1226 282.799 55.5185 282.797 55.7284 282.758L54.3865 282.658ZM55.7284 282.758C55.8194 282.74 55.8507 282.72 55.8508 282.72L55.7284 282.758ZM55.8508 282.72C55.8509 282.72 55.851 282.72 55.8511 282.72L55.8508 282.72Z" fill="white" fill-opacity="0.17"/>
<path fill-rule="evenodd" clip-rule="evenodd" d="M411.833 65.8507C411.083 68.7844 401.158 68.237 339.41 82.1484L411.833 65.8507Z" fill="white" fill-opacity="0.17"/>
<path fill-rule="evenodd" clip-rule="evenodd" d="M411.965 68.7936C412.693 68.3337 413.399 67.6236 413.689 66.4903L409.979 65.2157C410.053 64.9286 410.193 64.8036 410.192 64.8025C410.192 64.8021 410.17 64.8208 410.113 64.8564C409.874 65.0079 409.38 65.227 408.416 65.5056C406.51 66.0568 403.363 66.682 398.181 67.6731C397.493 67.8049 396.769 67.9428 396.011 68.0875C385.425 70.1065 367.876 73.4537 339.041 79.95L339.78 84.3516C368.56 77.8675 386.067 74.5284 396.64 72.5117C397.399 72.367 398.123 72.2291 398.812 72.0973C403.923 71.1196 407.258 70.4622 409.353 69.8562C410.391 69.5562 411.278 69.2281 411.965 68.7936Z" fill="white" fill-opacity="0.17"/>
<path fill-rule="evenodd" clip-rule="evenodd" d="M59.4481 286.026C59.9118 288.149 53.6297 292.018 20.0105 326.75L59.4481 286.026Z" fill="white" fill-opacity="0.17"/>
<path fill-rule="evenodd" clip-rule="evenodd" d="M60.8322 288.036C61.1698 287.377 61.4317 286.501 61.2143 285.506L57.6814 286.541C57.5929 286.136 57.7085 285.864 57.7075 285.863C57.7074 285.863 57.7047 285.869 57.6985 285.881C57.6281 286.018 57.4258 286.326 56.9268 286.898C55.9431 288.027 54.2199 289.73 51.3368 292.542C50.9546 292.915 50.5533 293.306 50.1322 293.717C44.2525 299.446 34.5024 308.948 18.7977 325.172L21.2228 328.324C36.8887 312.14 46.6079 302.669 52.4787 296.948C52.8999 296.537 53.3012 296.146 53.6836 295.773C56.5154 293.011 58.377 291.178 59.4913 289.899C60.0413 289.267 60.5165 288.653 60.8322 288.036Z" fill="white" fill-opacity="0.17"/>
<path fill-rule="evenodd" clip-rule="evenodd" d="M67.804 287.264C65.95 287.691 62.9402 280.222 34.7455 239.521L67.804 287.264Z" fill="white" fill-opacity="0.17"/>
<path fill-rule="evenodd" clip-rule="evenodd" d="M66.6615 287.606C67.0573 287.911 67.476 288.077 67.9268 287.973L67.6827 286.55L67.6816 286.55C67.6658 286.554 67.5833 286.574 67.3553 286.398C67.1092 286.208 66.7724 285.85 66.2889 285.222C65.3265 283.973 63.9135 281.836 61.6523 278.375C61.3508 277.913 61.0345 277.429 60.7027 276.92C56.071 269.824 48.3944 258.062 35.2341 239.064L34.2578 239.972C47.407 258.954 55.0752 270.703 59.7045 277.796C60.0364 278.304 60.3526 278.789 60.6541 279.25C62.9014 282.691 64.3507 284.885 65.3552 286.188C65.8551 286.837 66.2779 287.31 66.6615 287.606Z" fill="white" fill-opacity="0.17"/>
<path fill-rule="evenodd" clip-rule="evenodd" d="M146.746 226.715C146.109 223.442 138.704 224.284 92.189 210.097L146.746 226.715Z" fill="white" fill-opacity="0.17"/>
<path fill-rule="evenodd" clip-rule="evenodd" d="M144.954 227.388C144.931 227.353 144.899 227.291 144.881 227.197L148.611 226.223C148.209 224.158 146.675 223.255 145.117 222.633C143.477 221.979 140.907 221.304 137.082 220.33C136.564 220.198 136.02 220.06 135.45 219.915C127.499 217.897 114.34 214.557 92.6759 207.95L91.7026 212.235C113.443 218.865 126.661 222.22 134.63 224.243C135.2 224.388 135.744 224.526 136.262 224.658C140.182 225.656 142.491 226.272 143.871 226.823C144.597 227.112 144.872 227.312 144.954 227.388ZM144.984 227.422C144.986 227.422 144.978 227.41 144.954 227.388C144.97 227.411 144.981 227.422 144.984 227.422Z" fill="white" fill-opacity="0.17"/>
<path fill-rule="evenodd" clip-rule="evenodd" d="M366.963 202.945C367.021 247.951 362.906 239.722 346.631 263.918L366.963 202.945Z" fill="white" fill-opacity="0.17"/>
<path fill-rule="evenodd" clip-rule="evenodd" d="M364.276 242.077C367.545 235.024 368.529 225.365 368.5 202.941L365.427 202.946C365.456 225.528 364.411 234.258 361.568 240.392C360.146 243.461 358.238 245.955 355.556 249.299C355.326 249.586 355.091 249.879 354.851 250.178C352.305 253.345 349.18 257.231 345.419 262.822L347.843 265.012C351.518 259.548 354.561 255.764 357.103 252.602C357.342 252.304 357.577 252.011 357.808 251.724C360.474 248.399 362.643 245.601 364.276 242.077Z" fill="white" fill-opacity="0.17"/>
<path fill-rule="evenodd" clip-rule="evenodd" d="M56.9458 283.793C18.4396 289.675 24.9492 283.883 2.14136 268.308L56.9458 283.793Z" fill="white" fill-opacity="0.17"/>
<path fill-rule="evenodd" clip-rule="evenodd" d="M23.146 285.652C29.5765 288.485 37.943 288.374 57.1333 285.443L56.7579 282.143C37.4419 285.093 29.8102 285.027 24.1669 282.541C21.3429 281.297 18.9526 279.418 15.745 276.77C15.4696 276.542 15.1888 276.31 14.9018 276.072C11.863 273.556 8.13693 270.47 2.87036 266.874L1.41187 269.742C6.56609 273.261 10.2007 276.271 13.2351 278.783C13.5211 279.02 13.8018 279.252 14.0779 279.48C17.2677 282.114 19.9332 284.237 23.146 285.652Z" fill="white" fill-opacity="0.17"/>
<path fill-rule="evenodd" clip-rule="evenodd" d="M411.833 65.8509C370.604 90.2479 374.81 82.4178 339.41 82.1487L411.833 65.8509Z" fill="white" fill-opacity="0.17"/>
<path fill-rule="evenodd" clip-rule="evenodd" d="M373.642 85.4792C382.571 84.3708 392.124 80.0316 412.713 67.8479L410.954 63.8544C390.314 76.0678 381.355 80.0121 373.23 81.0206C369.152 81.5268 365.225 81.3009 359.987 80.9095C359.537 80.8758 359.078 80.841 358.609 80.8055C353.639 80.4289 347.568 79.9689 339.422 79.907L339.397 84.3909C347.426 84.452 353.396 84.9042 358.36 85.2803C358.828 85.3157 359.287 85.3505 359.738 85.3842C364.957 85.7742 369.192 86.0315 373.642 85.4792Z" fill="white" fill-opacity="0.17"/>
<path fill-rule="evenodd" clip-rule="evenodd" d="M146.746 226.715C115.301 200.299 118.645 208.984 92.189 210.097L146.746 226.715Z" fill="white" fill-opacity="0.17"/>
<path fill-rule="evenodd" clip-rule="evenodd" d="M117.343 210.278C123.189 211.183 129.833 215.243 145.624 228.508L147.868 224.92C132.214 211.77 124.807 206.964 117.85 205.886C114.375 205.348 111.102 205.754 107.219 206.31C106.882 206.358 106.54 206.407 106.191 206.458C102.491 206.993 98.077 207.632 92.1199 207.882L92.2586 212.31C98.3892 212.052 102.952 211.392 106.659 210.855C107.009 210.805 107.352 210.755 107.687 210.707C111.6 210.147 114.417 209.824 117.343 210.278Z" fill="white" fill-opacity="0.17"/>
<path fill-rule="evenodd" clip-rule="evenodd" d="M366.963 202.945C362.269 226.795 341.113 221.147 346.63 263.918L366.963 202.945Z" fill="white" fill-opacity="0.17"/>
<path fill-rule="evenodd" clip-rule="evenodd" d="M357.778 223.089C362.006 218.213 366.571 212.947 368.462 203.339L365.465 202.547C363.79 211.061 360.031 215.411 355.938 220.147C354.577 221.721 353.179 223.339 351.808 225.166C349.1 228.778 346.685 233.07 345.331 239.262C343.984 245.419 343.713 253.338 345.111 264.18L348.151 263.653C346.791 253.11 347.095 245.695 348.31 240.137C349.518 234.613 351.65 230.807 354.128 227.503C355.259 225.995 356.503 224.56 357.778 223.089Z" fill="white" fill-opacity="0.17"/>
<path fill-rule="evenodd" clip-rule="evenodd" d="M56.9458 283.801C35.93 281.489 38.0294 256.449 2.14136 268.315L56.9458 283.801Z" fill="white" fill-opacity="0.17"/>
<path fill-rule="evenodd" clip-rule="evenodd" d="M38.5932 275.766C43.3092 279.991 48.3761 284.529 56.8102 285.457L57.0817 282.143C49.5482 281.315 45.3118 277.531 40.7247 273.434C39.2043 272.077 37.6453 270.684 35.9149 269.354C32.4841 266.716 28.5142 264.503 23.0594 263.75C17.634 263.001 10.8363 263.709 1.74719 266.714L2.53543 269.915C11.3904 266.987 17.7884 266.375 22.7196 267.056C27.6214 267.732 31.1692 269.7 34.3266 272.128C35.7723 273.239 37.1667 274.488 38.5932 275.766Z" fill="white" fill-opacity="0.17"/>
<path fill-rule="evenodd" clip-rule="evenodd" d="M411.833 65.8507C386.15 74.9017 374.158 54.4794 339.41 82.1484L411.833 65.8507Z" fill="white" fill-opacity="0.17"/>
<path fill-rule="evenodd" clip-rule="evenodd" d="M386.114 69.8734C393.985 70.7002 402.248 71.5683 412.397 67.9917L411.272 63.7017C401.91 67.0008 394.608 66.24 386.89 65.4358C384.368 65.173 381.801 64.9055 379.104 64.7737C368.139 64.238 356.04 66.1829 338.315 80.2966L340.507 83.9922C357.53 70.4367 368.801 68.7583 378.941 69.2538C381.323 69.3702 383.7 69.6199 386.114 69.8734Z" fill="white" fill-opacity="0.17"/>
<path fill-rule="evenodd" clip-rule="evenodd" d="M146.746 226.715C127.315 217.153 118.873 240.331 92.189 210.097L146.746 226.715Z" fill="white" fill-opacity="0.17"/>
<path fill-rule="evenodd" clip-rule="evenodd" d="M128.376 227.419C134.057 226.355 139.169 225.397 145.998 228.758L147.493 224.679C139.555 220.773 133.058 222.005 127.156 223.124C125.397 223.458 123.692 223.781 122.016 223.955C118.296 224.343 114.446 224.118 109.943 222.048C105.404 219.962 100.081 215.944 93.5256 208.517L90.8523 211.685C97.6392 219.375 103.378 223.797 108.533 226.167C113.725 228.554 118.203 228.801 122.358 228.369C124.487 228.147 126.464 227.777 128.376 227.419Z" fill="white" fill-opacity="0.17"/>
<path fill-rule="evenodd" clip-rule="evenodd" d="M366.963 202.945C368.879 205.459 322.96 225.476 346.631 263.918L366.963 202.945Z" fill="white" fill-opacity="0.17"/>
<path fill-rule="evenodd" clip-rule="evenodd" d="M368.475 203.756C368.631 203.169 368.595 202.396 368.115 201.767L365.811 204.124C365.452 203.652 365.441 203.07 365.538 202.708C365.578 202.558 365.629 202.462 365.651 202.427C365.648 202.431 365.645 202.435 365.641 202.44C365.537 202.576 365.274 202.842 364.766 203.269C364.1 203.829 363.217 204.503 362.14 205.323C361.61 205.727 361.034 206.166 360.414 206.645C356.727 209.492 351.788 213.521 347.524 218.734C343.261 223.946 339.581 230.451 338.571 238.264C337.555 246.128 339.278 255.043 345.38 264.953L347.882 262.884C342.148 253.573 340.735 245.571 341.611 238.791C342.494 231.961 345.736 226.097 349.754 221.184C353.772 216.273 358.473 212.424 362.118 209.609C362.682 209.174 363.229 208.757 363.746 208.363C364.865 207.509 365.847 206.761 366.572 206.152C367.09 205.715 367.594 205.256 367.94 204.804C368.104 204.59 368.349 204.232 368.475 203.756ZM365.661 202.412C365.66 202.413 365.657 202.418 365.651 202.427C365.658 202.417 365.661 202.412 365.661 202.412Z" fill="white" fill-opacity="0.17"/>
<path fill-rule="evenodd" clip-rule="evenodd" d="M56.9458 283.794C55.0416 286.321 31.9792 236.142 2.14136 268.308L56.9458 283.794Z" fill="white" fill-opacity="0.17"/>
<path fill-rule="evenodd" clip-rule="evenodd" d="M56.4636 285.522C56.959 285.62 57.5781 285.485 58.0272 284.889L55.8634 282.7C56.1935 282.262 56.6523 282.182 56.9469 282.24C57.063 282.263 57.1398 282.303 57.1685 282.32C57.1638 282.317 57.1578 282.312 57.1505 282.306C57.0102 282.196 56.7425 281.92 56.3111 281.392C55.7442 280.697 55.0511 279.765 54.2085 278.632C53.7949 278.076 53.3454 277.472 52.857 276.823C49.9457 272.957 45.8657 267.809 40.8634 263.591C35.8624 259.374 29.8401 256 23.0515 255.85C16.2218 255.698 8.83912 258.815 1.16248 267.09L3.11918 269.527C10.3615 261.72 17.0508 259.046 22.9967 259.178C28.9837 259.31 34.4406 262.292 39.173 266.283C43.9041 270.272 47.8115 275.186 50.6924 279.012C51.1393 279.605 51.5671 280.18 51.9715 280.724C52.8456 281.899 53.6106 282.927 54.2239 283.679C54.6637 284.218 55.1158 284.729 55.5372 285.061C55.7371 285.218 56.0612 285.442 56.4636 285.522ZM57.1812 282.328C57.1811 282.328 57.1768 282.325 57.1685 282.32C57.1771 282.326 57.1812 282.329 57.1812 282.328Z" fill="white" fill-opacity="0.17"/>
<path fill-rule="evenodd" clip-rule="evenodd" d="M411.835 65.8466C411.084 68.7793 354.354 44.5832 338.311 84.8098L411.835 65.8466ZM411.835 65.8466C411.084 68.7793 382.681 107.859 337.748 81.9758L411.835 65.8466Z" fill="white" fill-opacity="0.17"/>
<path fill-rule="evenodd" clip-rule="evenodd" d="M413.006 68.093C413.259 67.6648 413.587 67.0711 413.732 66.5019L414.69 62.7624L410.721 63.7861C410.409 63.755 409.984 63.692 409.426 63.59C408.331 63.3899 406.937 63.0816 405.256 62.7097C404.452 62.5318 403.583 62.3394 402.649 62.1374C396.949 60.9046 389.169 59.386 380.876 59.0528C364.438 58.3925 345.074 62.3849 336.513 83.8501L334.834 88.0593L341.275 86.3982C362.345 96.8666 379.748 93.5044 392.194 86.8003C398.813 83.2347 404.003 78.7411 407.595 74.9407C409.391 73.0401 410.8 71.2999 411.798 69.9167C412.295 69.2268 412.701 68.6097 413.006 68.093ZM342.119 81.4798C350.356 66.3892 365.925 63.0432 380.738 63.6384C388.149 63.9361 395.178 65.2195 400.667 66.3793L342.119 81.4798ZM348.261 84.5963C365.735 91.466 380.068 88.2724 390.524 82.6396C396.717 79.304 401.576 75.0955 404.925 71.5523C405.601 70.8373 406.213 70.1516 406.761 69.5081L348.261 84.5963Z" fill="white" fill-opacity="0.17"/>
<path fill-rule="evenodd" clip-rule="evenodd" d="M59.448 286.022C59.9117 288.145 17.4686 297.584 20.2902 329.145L59.448 286.022Z" fill="white" fill-opacity="0.17"/>
<path fill-rule="evenodd" clip-rule="evenodd" d="M60.6881 287.7C60.8809 287.465 61.4662 286.659 61.2143 285.505L57.6814 286.541C57.4585 285.52 57.989 284.861 58.0485 284.788C58.105 284.719 58.1504 284.678 58.168 284.663C58.161 284.669 58.1491 284.677 58.1317 284.689C57.9693 284.8 57.6441 284.977 57.0968 285.235C56.3672 285.579 55.4234 285.982 54.2773 286.473C53.7277 286.708 53.1315 286.963 52.4902 287.241C48.5987 288.927 43.3218 291.336 38.0995 294.7C27.7739 301.351 16.9457 312.228 18.4777 329.363L22.1025 328.928C20.8129 314.503 29.7954 304.88 39.87 298.391C44.8478 295.185 49.9184 292.864 53.7664 291.196C54.357 290.941 54.9258 290.697 55.4637 290.467C56.6486 289.96 57.6833 289.517 58.4686 289.147C59.0319 288.882 59.5683 288.609 59.9753 288.332C60.1666 288.202 60.4457 287.995 60.6881 287.7ZM58.1759 284.657C58.1758 284.657 58.173 284.659 58.168 284.663C58.1735 284.659 58.1761 284.657 58.1759 284.657Z" fill="white" fill-opacity="0.17"/>
<path fill-rule="evenodd" clip-rule="evenodd" d="M67.804 287.267C65.95 287.694 62.0918 237.89 34.7455 239.523L67.804 287.267Z" fill="white" fill-opacity="0.17"/>
<path fill-rule="evenodd" clip-rule="evenodd" d="M67.1558 287.644C67.2653 287.788 67.5344 288.069 67.9265 287.979L67.6824 286.556C67.8109 286.526 67.9227 286.559 67.9968 286.603C68.0605 286.64 68.0909 286.68 68.0923 286.682L68.0924 286.682C68.0926 286.682 68.0928 286.682 68.0928 286.682C68.0928 286.682 68.0834 286.669 68.0659 286.635C68.047 286.598 68.0234 286.547 67.9957 286.478C67.8799 286.189 67.7409 285.721 67.5735 285.066C67.3486 284.185 67.0915 283.042 66.7854 281.682C66.638 281.027 66.4793 280.322 66.3074 279.572C65.2557 274.979 63.7352 268.801 61.408 262.652C56.7721 250.402 48.8054 237.958 34.7136 238.799L34.778 240.248C48.0326 239.457 55.6682 251.098 60.2615 263.235C62.5489 269.279 64.0498 275.369 65.0975 279.944C65.2644 280.673 65.4205 281.366 65.5668 282.016C65.8767 283.393 66.1423 284.573 66.373 285.477C66.542 286.139 66.7027 286.696 66.8605 287.089C66.9371 287.28 67.0327 287.484 67.1558 287.644Z" fill="white" fill-opacity="0.17"/>
<path fill-rule="evenodd" clip-rule="evenodd" d="M146.746 226.711C146.109 223.439 105.212 254.842 92.189 210.093L146.746 226.711Z" fill="white" fill-opacity="0.17"/>
<path fill-rule="evenodd" clip-rule="evenodd" d="M145.956 228.604C145.547 228.443 145.034 227.991 144.88 227.201L148.611 226.228C148.418 225.234 147.786 224.645 147.185 224.408C146.702 224.218 146.244 224.245 145.98 224.276C145.417 224.341 144.767 224.559 144.157 224.791C143.298 225.118 142.185 225.608 140.927 226.162C140.35 226.416 139.743 226.683 139.116 226.955C135.017 228.727 129.604 230.873 123.859 231.763C118.112 232.653 112.198 232.259 106.996 229.143C101.843 226.056 97.1303 220.142 94.0007 209.389L90.3774 210.805C93.7594 222.425 99.0421 229.366 105.24 233.079C111.389 236.763 118.181 237.113 124.366 236.155C130.553 235.197 136.297 232.903 140.453 231.106C141.159 230.8 141.808 230.515 142.402 230.253C143.6 229.725 144.576 229.295 145.349 229.001C145.937 228.778 146.243 228.699 146.358 228.685C146.306 228.687 146.154 228.682 145.956 228.604ZM146.362 228.685C146.361 228.685 146.36 228.685 146.358 228.685L146.362 228.685Z" fill="white" fill-opacity="0.17"/>
<path fill-rule="evenodd" clip-rule="evenodd" d="M255.469 285.883C256.261 289.897 259.358 334.243 202.66 337.801L255.469 285.883Z" fill="white" fill-opacity="0.17"/>
<path fill-rule="evenodd" clip-rule="evenodd" d="M252.293 313.173C258.82 300.535 257.848 287.822 257.366 285.382L253.571 286.388C253.882 287.962 254.854 299.429 248.953 310.857C243.15 322.095 230.426 333.802 202.554 335.55L202.765 340.055C231.592 338.246 245.669 326.001 252.293 313.173Z" fill="white" fill-opacity="0.17"/>
<path fill-rule="evenodd" clip-rule="evenodd" d="M255.469 285.883C256.261 289.897 247.677 293.515 202.66 337.801L255.469 285.883Z" fill="white" fill-opacity="0.17"/>
<path fill-rule="evenodd" clip-rule="evenodd" d="M255.248 291.066C256.681 289.429 257.814 287.652 257.366 285.379L253.571 286.385C253.571 286.38 253.569 286.36 253.572 286.336C253.572 286.33 253.573 286.327 253.573 286.326C253.573 286.325 253.567 286.36 253.534 286.437C253.43 286.677 253.163 287.114 252.515 287.854C251.218 289.336 248.921 291.455 245.045 294.962C244.531 295.426 243.992 295.913 243.426 296.424C235.53 303.558 222.433 315.389 201.4 336.081L203.919 339.52C224.891 318.888 237.939 307.101 245.822 299.98C246.387 299.469 246.926 298.982 247.44 298.517C251.238 295.082 253.752 292.776 255.248 291.066Z" fill="white" fill-opacity="0.17"/>
<path fill-rule="evenodd" clip-rule="evenodd" d="M245.891 297.059C229.069 296.708 223.407 295.501 220.069 295.5L245.891 297.059Z" fill="white" fill-opacity="0.17"/>
<path fill-rule="evenodd" clip-rule="evenodd" d="M227.777 298.4C231.747 298.748 237.406 299.14 245.856 299.316L245.926 294.806C237.554 294.632 231.971 294.244 228.071 293.902C226.848 293.794 225.767 293.688 224.805 293.594C222.772 293.394 221.268 293.247 220.069 293.247L220.069 297.758C221.101 297.758 222.349 297.881 224.234 298.066C225.221 298.163 226.381 298.277 227.777 298.4Z" fill="white" fill-opacity="0.17"/>
<path fill-rule="evenodd" clip-rule="evenodd" d="M233.936 307.172C219.553 306.821 214.713 305.614 211.859 305.613L233.936 307.172Z" fill="white" fill-opacity="0.17"/>
<path fill-rule="evenodd" clip-rule="evenodd" d="M218.403 308.495C221.809 308.845 226.658 309.237 233.895 309.414L233.977 304.93C226.831 304.756 222.069 304.369 218.745 304.027C217.724 303.922 216.812 303.818 215.995 303.724C214.236 303.522 212.91 303.37 211.859 303.37L211.859 307.855C212.716 307.855 213.745 307.974 215.332 308.156C216.178 308.253 217.182 308.369 218.403 308.495Z" fill="white" fill-opacity="0.17"/>
<path fill-rule="evenodd" clip-rule="evenodd" d="M222.365 318.844C211.964 318.493 208.463 317.286 206.399 317.285L222.365 318.844Z" fill="white" fill-opacity="0.17"/>
<path fill-rule="evenodd" clip-rule="evenodd" d="M211.018 320.179C213.508 320.533 217.044 320.928 222.309 321.105L222.422 316.584C217.285 316.411 213.87 316.027 211.493 315.689C210.697 315.576 210.034 315.47 209.439 315.376C209.129 315.327 208.838 315.281 208.556 315.238C207.776 315.119 207.057 315.024 206.4 315.024L206.399 319.547C206.774 319.548 207.266 319.604 208.048 319.723C208.292 319.76 208.564 319.803 208.864 319.851C209.475 319.948 210.199 320.062 211.018 320.179Z" fill="white" fill-opacity="0.17"/>
<path fill-rule="evenodd" clip-rule="evenodd" d="M255.469 285.883C256.261 289.897 208.931 272.41 202.66 337.801L255.469 285.883Z" fill="white" fill-opacity="0.17"/>
<path fill-rule="evenodd" clip-rule="evenodd" d="M256.859 287.699C257.379 287.023 257.52 286.157 257.366 285.381L253.572 286.387C253.468 285.862 253.564 285.205 253.951 284.701C254.102 284.504 254.252 284.393 254.34 284.338C254.429 284.281 254.491 284.258 254.504 284.254C254.522 284.248 254.467 284.268 254.295 284.289C254.133 284.308 253.917 284.323 253.639 284.33C252.954 284.349 252.122 284.326 251.1 284.297C250.332 284.275 249.456 284.251 248.454 284.239C243.962 284.185 237.696 284.417 231.16 286.664C224.598 288.92 217.754 293.211 212.154 301.251C206.562 309.279 202.324 320.885 200.726 337.553L204.594 338.051C206.132 322.023 210.162 311.293 215.183 304.084C220.197 296.886 226.311 293.037 232.267 290.989C238.249 288.932 244.058 288.697 248.414 288.749C249.258 288.759 250.082 288.782 250.847 288.803C251.976 288.833 252.978 288.861 253.731 288.84C254.345 288.823 255.059 288.775 255.647 288.566C255.933 288.464 256.445 288.24 256.859 287.699Z" fill="white" fill-opacity="0.17"/>
<path fill-rule="evenodd" clip-rule="evenodd" d="M312.629 204.646C313.957 204.646 282.619 269.33 252.563 288.27L312.629 204.646Z" fill="white" fill-opacity="0.17"/>
<path fill-rule="evenodd" clip-rule="evenodd" d="M314.813 202.29C314.182 201.518 313.36 201.201 312.629 201.201V208.084C311.919 208.084 311.114 207.775 310.496 207.019C309.962 206.364 309.801 205.655 309.746 205.309C309.649 204.69 309.736 204.212 309.746 204.156L309.747 204.152C309.766 204.042 309.785 203.976 309.785 203.975C309.785 203.974 309.774 204.014 309.744 204.103C309.63 204.435 309.395 205.029 309.012 205.905C308.261 207.626 307.061 210.16 305.469 213.304C302.29 219.582 297.606 228.172 291.948 237.352C280.538 255.864 265.524 276.181 251.144 285.242L253.982 291.289C269.657 281.411 285.34 259.916 296.782 241.352C302.55 231.993 307.329 223.229 310.592 216.787C312.221 213.571 313.486 210.904 314.312 209.013C314.718 208.083 315.05 207.269 315.264 206.644C315.358 206.369 315.494 205.948 315.571 205.505L315.572 205.501C315.599 205.344 315.699 204.766 315.589 204.07C315.53 203.693 315.359 202.961 314.813 202.29Z" fill="white" fill-opacity="0.17"/>
<path fill-rule="evenodd" clip-rule="evenodd" d="M312.629 204.646C313.957 204.646 282.619 269.33 252.563 288.27L312.629 204.646Z" fill="white" fill-opacity="0.17"/>
<path fill-rule="evenodd" clip-rule="evenodd" d="M314.813 202.29C314.182 201.518 313.36 201.201 312.629 201.201V208.084C311.919 208.084 311.114 207.775 310.496 207.019C309.962 206.364 309.801 205.655 309.746 205.309C309.649 204.69 309.736 204.212 309.746 204.156L309.747 204.152C309.766 204.042 309.785 203.976 309.785 203.975C309.785 203.974 309.774 204.014 309.744 204.103C309.63 204.435 309.395 205.029 309.012 205.905C308.261 207.626 307.061 210.16 305.469 213.304C302.29 219.582 297.606 228.172 291.948 237.352C280.538 255.864 265.524 276.181 251.144 285.242L253.982 291.289C269.657 281.411 285.34 259.916 296.782 241.352C302.55 231.993 307.329 223.229 310.592 216.787C312.221 213.571 313.486 210.904 314.312 209.013C314.718 208.083 315.05 207.269 315.264 206.644C315.358 206.369 315.494 205.948 315.571 205.505L315.572 205.501C315.599 205.344 315.699 204.766 315.589 204.07C315.53 203.693 315.359 202.961 314.813 202.29Z" fill="white" fill-opacity="0.17"/>
<path fill-rule="evenodd" clip-rule="evenodd" d="M397.738 128.792C399.066 128.792 382.877 166.718 367.684 204.645L397.738 128.792Z" fill="white" fill-opacity="0.17"/>
<path fill-rule="evenodd" clip-rule="evenodd" d="M400.137 126.711C399.546 125.824 398.65 125.347 397.738 125.347V132.23C396.868 132.23 396.006 131.771 395.438 130.921C394.986 130.243 394.891 129.569 394.865 129.323C394.833 129.026 394.847 128.804 394.854 128.721C394.862 128.621 394.873 128.559 394.874 128.551C394.874 128.548 394.874 128.548 394.874 128.551C394.871 128.563 394.859 128.624 394.826 128.748C394.788 128.892 394.733 129.083 394.657 129.326C394.348 130.321 393.799 131.862 393.019 133.926C391.468 138.026 389.11 143.913 386.219 151.026C384.301 155.746 382.15 161 379.854 166.609C375.25 177.858 370.061 190.533 364.99 203.192L370.378 206.09C375.439 193.454 380.606 180.834 385.204 169.6C387.504 163.982 389.661 158.711 391.593 153.958C394.483 146.849 396.873 140.884 398.459 136.688C399.247 134.603 399.864 132.885 400.245 131.658C400.426 131.076 400.604 130.449 400.699 129.896C400.736 129.683 400.829 129.121 400.759 128.473C400.725 128.154 400.614 127.426 400.137 126.711Z" fill="white" fill-opacity="0.17"/>
<path fill-rule="evenodd" clip-rule="evenodd" d="M261.87 176.579C262.368 175.539 269.082 165.315 281.862 177.219L261.87 176.579Z" fill="white" fill-opacity="0.17"/>
<path fill-rule="evenodd" clip-rule="evenodd" d="M266.76 170.174C262.916 171.554 260.802 174.772 260.391 175.629L263.348 177.53C263.347 177.533 263.348 177.531 263.351 177.525C263.37 177.491 263.461 177.332 263.646 177.075C263.851 176.79 264.144 176.424 264.524 176.036C265.286 175.258 266.367 174.417 267.76 173.917C270.435 172.957 274.736 173.096 280.803 178.746L282.921 175.692C276.207 169.439 270.761 168.738 266.76 170.174Z" fill="white" fill-opacity="0.17"/>
<path fill-rule="evenodd" clip-rule="evenodd" d="M265.618 164.434C264.884 164.22 257.326 160.607 262.232 147.802L265.618 164.434Z" fill="white" fill-opacity="0.17"/>
<path fill-rule="evenodd" clip-rule="evenodd" d="M263.777 164.084C264.554 164.685 265.223 164.987 265.481 165.062L265.756 163.798C265.648 163.766 265.096 163.536 264.402 162.999C263.718 162.47 262.92 161.66 262.287 160.49C261.042 158.186 260.35 154.319 262.747 148.062L261.718 147.533C259.209 154.083 259.843 158.425 261.333 161.182C262.068 162.542 262.991 163.476 263.777 164.084Z" fill="white" fill-opacity="0.17"/>
<path fill-rule="evenodd" clip-rule="evenodd" d="M298.193 120.845C296.77 122.024 278.955 130.143 266.801 100.979L298.193 120.845Z" fill="white" fill-opacity="0.17"/>
<path fill-rule="evenodd" clip-rule="evenodd" d="M297.31 122.702C297.98 122.414 298.524 122.112 298.823 121.865L297.562 119.821L297.562 119.821C297.562 119.821 297.556 119.825 297.543 119.835C297.529 119.845 297.509 119.859 297.483 119.875C297.431 119.909 297.361 119.951 297.271 120.001C297.093 120.099 296.854 120.218 296.557 120.346C295.963 120.601 295.158 120.882 294.186 121.105C292.241 121.55 289.649 121.753 286.739 121.058C280.977 119.682 273.735 114.727 267.777 100.43L265.824 101.523C272.02 116.391 279.762 121.958 286.302 123.519C289.543 124.293 292.431 124.068 294.606 123.57C295.694 123.321 296.61 123.003 297.31 122.702Z" fill="white" fill-opacity="0.17"/>
<path fill-rule="evenodd" clip-rule="evenodd" d="M261.87 176.579C262.368 175.539 264.815 176.68 281.862 177.219L261.87 176.579Z" fill="white" fill-opacity="0.17"/>
<path fill-rule="evenodd" clip-rule="evenodd" d="M262.727 174.211C262.117 174.244 260.989 174.383 260.391 175.632L263.348 177.532C263.13 177.987 262.801 178.116 262.711 178.141C262.74 178.136 262.795 178.129 262.886 178.124C263.33 178.1 264.099 178.149 265.544 178.264C265.732 178.279 265.928 178.295 266.134 178.311C269.024 178.543 273.827 178.927 281.816 179.18L281.908 175.263C273.988 175.013 269.24 174.633 266.366 174.402C266.159 174.386 265.963 174.37 265.775 174.355C264.416 174.247 263.414 174.173 262.727 174.211ZM262.688 178.147C262.688 178.147 262.697 178.146 262.711 178.141C262.695 178.144 262.687 178.146 262.688 178.147Z" fill="white" fill-opacity="0.17"/>
<path fill-rule="evenodd" clip-rule="evenodd" d="M265.618 164.434C264.884 164.22 265.123 161.982 262.232 147.802L265.618 164.434Z" fill="white" fill-opacity="0.17"/>
<path fill-rule="evenodd" clip-rule="evenodd" d="M264.65 163.932C264.78 164.41 264.983 164.917 265.481 165.062L265.756 163.798C265.797 163.81 265.822 163.832 265.831 163.844C265.818 163.821 265.779 163.742 265.723 163.538C265.609 163.122 265.487 162.423 265.287 161.228C265.261 161.07 265.233 160.904 265.204 160.73C264.801 158.302 264.132 154.276 262.78 147.648L261.685 147.948C263.031 154.55 263.697 158.556 264.099 160.977C264.128 161.151 264.156 161.317 264.182 161.475C264.376 162.638 264.512 163.426 264.65 163.932ZM265.837 163.852C265.837 163.851 265.835 163.849 265.831 163.844C265.835 163.85 265.837 163.852 265.837 163.852Z" fill="white" fill-opacity="0.17"/>
<path fill-rule="evenodd" clip-rule="evenodd" d="M298.193 120.84C296.77 122.019 293.723 118.188 267.823 102.9L298.193 120.84Z" fill="white" fill-opacity="0.17"/>
<path fill-rule="evenodd" clip-rule="evenodd" d="M296.07 121.848C296.987 122.293 297.958 122.584 298.823 121.867L297.562 119.823C297.587 119.803 297.609 119.792 297.625 119.787C297.558 119.785 297.358 119.749 296.908 119.531C296.089 119.133 294.83 118.332 292.718 116.955C292.438 116.773 292.145 116.582 291.838 116.381C287.543 113.579 280.418 108.93 268.315 101.786L267.33 104.025C279.394 111.146 286.489 115.775 290.775 118.571C291.082 118.772 291.376 118.963 291.655 119.145C293.719 120.49 295.108 121.381 296.07 121.848ZM297.652 119.784C297.651 119.782 297.641 119.782 297.625 119.787C297.646 119.788 297.654 119.785 297.652 119.784Z" fill="white" fill-opacity="0.17"/>
<path fill-rule="evenodd" clip-rule="evenodd" d="M291.995 117.926C288.94 109.006 288.339 105.797 287.706 104.04L291.995 117.926Z" fill="white" fill-opacity="0.17"/>
<path fill-rule="evenodd" clip-rule="evenodd" d="M287.914 108.69C288.531 110.849 289.452 113.903 290.988 118.387L293.003 117.46C291.484 113.024 290.577 110.014 289.972 107.899C289.783 107.24 289.62 106.653 289.475 106.13C289.166 105.018 288.936 104.19 288.707 103.554L286.706 104.522C286.899 105.059 287.086 105.73 287.369 106.75C287.518 107.289 287.695 107.925 287.914 108.69Z" fill="white" fill-opacity="0.17"/>
<path fill-rule="evenodd" clip-rule="evenodd" d="M285.763 113.551C283.171 105.915 282.726 103.138 282.185 101.635L285.763 113.551Z" fill="white" fill-opacity="0.17"/>
<path fill-rule="evenodd" clip-rule="evenodd" d="M282.223 105.655C282.733 107.515 283.5 110.144 284.805 113.988L286.721 113.115C285.434 109.323 284.683 106.745 284.187 104.933C284.035 104.379 283.904 103.882 283.785 103.434C283.53 102.467 283.336 101.734 283.135 101.176L281.235 102.096C281.396 102.543 281.543 103.101 281.771 103.966C281.894 104.43 282.04 104.983 282.223 105.655Z" fill="white" fill-opacity="0.17"/>
<path fill-rule="evenodd" clip-rule="evenodd" d="M278.994 109.676C277.158 104.135 276.967 102.063 276.575 100.977L278.994 109.676Z" fill="white" fill-opacity="0.17"/>
<path fill-rule="evenodd" clip-rule="evenodd" d="M276.319 103.956C276.653 105.334 277.169 107.27 278.098 110.074L279.89 109.277C278.983 106.541 278.485 104.67 278.167 103.355C278.06 102.915 277.975 102.547 277.9 102.216C277.86 102.043 277.823 101.881 277.786 101.724C277.684 101.291 277.585 100.894 277.46 100.548L275.69 101.406C275.761 101.603 275.833 101.873 275.934 102.307C275.966 102.442 276.001 102.594 276.039 102.762C276.117 103.101 276.21 103.504 276.319 103.956Z" fill="white" fill-opacity="0.17"/>
<path fill-rule="evenodd" clip-rule="evenodd" d="M261.87 176.583C262.368 175.543 269.633 189.878 281.862 177.222L261.87 176.583Z" fill="white" fill-opacity="0.17"/>
<path fill-rule="evenodd" clip-rule="evenodd" d="M261.746 174.58C261.13 174.661 260.65 175.091 260.391 175.63L263.348 177.531C263.121 178.005 262.685 178.4 262.126 178.473C261.703 178.529 261.401 178.37 261.332 178.333C261.243 178.286 261.191 178.242 261.191 178.242C261.191 178.242 261.216 178.262 261.271 178.317C261.407 178.452 261.55 178.608 261.741 178.817C261.9 178.991 262.092 179.201 262.342 179.466C263.328 180.513 264.812 181.966 266.742 183.026C268.694 184.098 271.111 184.774 273.919 184.247C276.717 183.722 279.75 182.032 282.988 178.681L280.736 175.759C277.859 178.737 275.397 180.001 273.379 180.379C271.37 180.756 269.646 180.286 268.191 179.486C266.714 178.675 265.524 177.53 264.626 176.577C264.477 176.419 264.317 176.245 264.159 176.074C263.901 175.792 263.65 175.519 263.469 175.34C263.335 175.207 263.069 174.948 262.752 174.778C262.6 174.696 262.227 174.518 261.746 174.58Z" fill="white" fill-opacity="0.17"/>
<path fill-rule="evenodd" clip-rule="evenodd" d="M265.618 164.434C264.884 164.22 272.328 155.51 262.232 147.802L265.618 164.434Z" fill="white" fill-opacity="0.17"/>
<path fill-rule="evenodd" clip-rule="evenodd" d="M265.048 164.623C265.128 164.858 265.296 165.009 265.481 165.062L265.755 163.798C265.894 163.838 266.033 163.958 266.097 164.148C266.143 164.286 266.126 164.393 266.124 164.405C266.124 164.405 266.124 164.405 266.124 164.405C266.124 164.409 266.123 164.411 266.124 164.411C266.124 164.411 266.136 164.367 266.183 164.253C266.245 164.103 266.327 163.929 266.428 163.711C266.506 163.545 266.596 163.353 266.698 163.127C267.144 162.14 267.72 160.722 267.989 159.043C268.259 157.355 268.219 155.399 267.431 153.353C266.644 151.31 265.133 149.232 262.541 147.253L261.922 148.343C264.379 150.218 265.723 152.12 266.403 153.884C267.081 155.645 267.119 157.325 266.882 158.805C266.644 160.294 266.128 161.576 265.7 162.522C265.62 162.701 265.537 162.878 265.46 163.043C265.344 163.293 265.239 163.517 265.169 163.687C265.112 163.824 265.042 164.005 265.016 164.18C265.003 164.265 264.985 164.436 265.048 164.623Z" fill="white" fill-opacity="0.17"/>
<path fill-rule="evenodd" clip-rule="evenodd" d="M298.193 120.844C296.77 122.022 295.559 93.2913 268.74 102.401L298.193 120.844Z" fill="white" fill-opacity="0.17"/>
<path fill-rule="evenodd" clip-rule="evenodd" d="M297.678 122.046C298.1 122.229 298.52 122.117 298.823 121.867L297.562 119.823C297.776 119.645 298.108 119.549 298.44 119.693C298.569 119.75 298.657 119.826 298.704 119.874C298.752 119.922 298.779 119.962 298.787 119.974C298.788 119.976 298.787 119.974 298.785 119.97C298.774 119.946 298.721 119.834 298.628 119.558C298.507 119.2 298.378 118.763 298.221 118.225C298.097 117.802 297.954 117.317 297.783 116.758C297.037 114.331 295.871 110.994 293.855 107.893C291.83 104.778 288.941 101.893 284.774 100.406C280.615 98.9218 275.287 98.8688 268.434 101.197L269.044 103.608C275.6 101.381 280.481 101.503 284.136 102.807C287.783 104.109 290.315 106.624 292.123 109.405C293.941 112.202 295.02 115.256 295.74 117.601C295.881 118.061 296.015 118.516 296.14 118.939C296.317 119.543 296.476 120.081 296.609 120.476C296.719 120.8 296.864 121.193 297.057 121.489C297.15 121.631 297.348 121.902 297.678 122.046Z" fill="white" fill-opacity="0.17"/>
<path fill-rule="evenodd" clip-rule="evenodd" d="M257.377 174.781C257.47 177.102 250.31 210.566 223.551 197.478L257.377 174.781Z" fill="white" fill-opacity="0.17"/>
<path fill-rule="evenodd" clip-rule="evenodd" d="M259.259 175.943C259.314 175.564 259.371 175.085 259.355 174.673L255.4 174.885C255.398 174.847 255.398 174.826 255.398 174.826C255.396 174.826 255.391 174.929 255.354 175.178C255.311 175.478 255.237 175.891 255.127 176.403C254.907 177.424 254.554 178.782 254.045 180.326C253.021 183.425 251.398 187.169 249.022 190.425C246.654 193.669 243.584 196.372 239.641 197.557C235.71 198.74 230.694 198.48 224.321 195.363L222.781 199.59C229.788 203.017 235.702 203.482 240.636 201.999C245.558 200.519 249.29 197.164 252.045 193.388C254.792 189.624 256.614 185.384 257.743 181.965C258.31 180.249 258.71 178.714 258.969 177.513C259.098 176.913 259.195 176.382 259.259 175.943Z" fill="white" fill-opacity="0.17"/>
<path fill-rule="evenodd" clip-rule="evenodd" d="M259.551 174.506C260.662 175.311 273.307 195.33 256.668 216.789L259.551 174.506Z" fill="white" fill-opacity="0.17"/>
<path fill-rule="evenodd" clip-rule="evenodd" d="M260.497 174.252C260.349 174.058 260.165 173.835 259.984 173.704L259.118 175.309C259.109 175.302 259.104 175.298 259.104 175.299C259.102 175.3 259.156 175.352 259.273 175.505C259.402 175.674 259.57 175.916 259.769 176.232C260.166 176.862 260.666 177.757 261.191 178.884C262.239 181.139 263.37 184.293 263.963 188.072C265.141 195.591 264.201 205.66 256.061 216.157L257.276 217.422C265.775 206.461 266.832 195.79 265.569 187.734C264.941 183.725 263.743 180.382 262.628 177.986C262.071 176.788 261.531 175.819 261.088 175.117C260.867 174.766 260.667 174.475 260.497 174.252Z" fill="white" fill-opacity="0.17"/>
<path fill-rule="evenodd" clip-rule="evenodd" d="M267.019 167.405C266.267 168.648 248.361 182.247 230.727 161.883L267.019 167.405Z" fill="white" fill-opacity="0.17"/>
<path fill-rule="evenodd" clip-rule="evenodd" d="M267.762 169.346C267.935 169.186 268.234 168.901 268.441 168.558L265.596 166.25C265.659 166.145 265.71 166.088 265.71 166.088C265.71 166.088 265.679 166.123 265.599 166.196C265.475 166.311 265.281 166.474 265.017 166.674C264.49 167.073 263.729 167.582 262.767 168.111C260.84 169.169 258.157 170.277 254.982 170.75C248.704 171.685 240.364 170.17 231.953 160.457L229.501 163.308C238.723 173.958 248.154 175.826 255.425 174.742C259.025 174.206 262.061 172.953 264.255 171.748C265.352 171.145 266.251 170.548 266.916 170.044C267.248 169.793 267.533 169.557 267.762 169.346Z" fill="white" fill-opacity="0.17"/>
<path fill-rule="evenodd" clip-rule="evenodd" d="M257.377 174.775C257.47 177.097 252.388 178.109 223.551 197.473L257.377 174.775Z" fill="white" fill-opacity="0.17"/>
<path fill-rule="evenodd" clip-rule="evenodd" d="M257.303 178.476C258.26 177.718 259.431 176.576 259.355 174.673L255.4 174.885C255.385 174.523 255.513 174.303 255.547 174.253C255.516 174.292 255.391 174.433 255.069 174.688C254.272 175.319 252.868 176.197 250.391 177.706C250.066 177.904 249.725 178.112 249.367 178.33C244.359 181.376 236.048 186.433 222.559 195.491L224.544 199.461C237.963 190.45 246.218 185.428 251.209 182.391C251.567 182.173 251.909 181.965 252.234 181.767C254.621 180.313 256.272 179.292 257.303 178.476ZM255.556 174.241C255.555 174.241 255.552 174.245 255.547 174.253C255.553 174.245 255.556 174.241 255.556 174.241Z" fill="white" fill-opacity="0.17"/>
<path fill-rule="evenodd" clip-rule="evenodd" d="M259.551 174.506C260.662 175.311 259.119 180.736 256.668 216.789L259.551 174.506Z" fill="white" fill-opacity="0.17"/>
<path fill-rule="evenodd" clip-rule="evenodd" d="M260.642 174.861C260.554 174.422 260.37 173.983 259.984 173.704L259.118 175.308C259.052 175.261 259.031 175.208 259.03 175.208C259.03 175.208 259.039 175.23 259.051 175.289C259.086 175.464 259.111 175.784 259.098 176.358C259.072 177.495 258.912 179.329 258.633 182.328C258.596 182.727 258.558 183.145 258.517 183.584C257.946 189.715 256.999 199.879 255.854 216.715L257.482 216.863C258.625 200.055 259.57 189.911 260.14 183.786C260.181 183.347 260.22 182.929 260.257 182.531C260.532 179.566 260.702 177.64 260.73 176.407C260.744 175.796 260.726 175.278 260.642 174.861Z" fill="white" fill-opacity="0.17"/>
<path fill-rule="evenodd" clip-rule="evenodd" d="M267.019 167.403C266.267 168.646 261.671 166.581 230.727 161.881L267.019 167.403Z" fill="white" fill-opacity="0.17"/>
<path fill-rule="evenodd" clip-rule="evenodd" d="M266.817 169.699C267.341 169.591 267.992 169.303 268.441 168.56L265.595 166.251C265.857 165.819 266.199 165.739 266.207 165.737C266.208 165.737 266.195 165.74 266.163 165.742C266.132 165.745 266.088 165.748 266.028 165.748C265.906 165.749 265.741 165.742 265.517 165.722C264.584 165.638 263.056 165.367 260.469 164.886C260.128 164.823 259.769 164.756 259.393 164.686C254.136 163.708 245.415 162.085 230.952 159.888L230.501 163.879C244.914 166.069 253.597 167.684 258.844 168.661C259.22 168.731 259.578 168.798 259.92 168.861C262.444 169.329 264.14 169.635 265.247 169.735C265.791 169.784 266.334 169.8 266.817 169.699Z" fill="white" fill-opacity="0.17"/>
<path fill-rule="evenodd" clip-rule="evenodd" d="M257.377 174.775C240.546 199.109 241.406 192.595 223.551 197.473L257.377 174.775Z" fill="white" fill-opacity="0.17"/>
<path fill-rule="evenodd" clip-rule="evenodd" d="M241.62 195.538C246.275 193.252 250.561 188.303 258.922 176.215L255.832 173.346C247.362 185.592 243.662 189.552 240.075 191.313C238.279 192.195 236.424 192.568 233.716 193.026C233.484 193.065 233.248 193.104 233.005 193.145C230.442 193.574 227.263 194.107 223.097 195.245L224.005 199.711C227.997 198.621 231.022 198.113 233.578 197.685C233.819 197.645 234.055 197.605 234.288 197.566C236.966 197.113 239.296 196.679 241.62 195.538Z" fill="white" fill-opacity="0.17"/>
<path fill-rule="evenodd" clip-rule="evenodd" d="M257.377 174.775C245.906 185.294 236.597 171.6 223.551 197.473L257.377 174.775Z" fill="white" fill-opacity="0.17"/>
<path fill-rule="evenodd" clip-rule="evenodd" d="M244.826 182.12C248.97 181.613 253.755 181.029 258.606 176.581L256.149 172.983C252.276 176.534 248.939 176.953 245.029 177.444C243.672 177.614 242.246 177.793 240.704 178.115C237.786 178.724 234.73 179.878 231.536 182.664C228.376 185.422 225.188 189.686 221.842 196.322L225.261 198.637C228.438 192.336 231.306 188.609 233.918 186.33C236.498 184.078 238.933 183.147 241.406 182.631C242.483 182.406 243.628 182.266 244.826 182.12Z" fill="white" fill-opacity="0.17"/>
<path fill-rule="evenodd" clip-rule="evenodd" d="M257.377 174.775C257.47 177.097 225.172 164.804 223.551 197.473L257.377 174.775Z" fill="white" fill-opacity="0.17"/>
<path fill-rule="evenodd" clip-rule="evenodd" d="M258.403 176.853C258.918 176.449 259.395 175.688 259.355 174.671L255.4 174.882C255.365 174.01 255.784 173.366 256.183 173.053C256.345 172.926 256.485 172.864 256.558 172.836C256.635 172.807 256.687 172.796 256.7 172.793C256.704 172.792 256.706 172.792 256.706 172.792C256.706 172.792 256.665 172.798 256.568 172.799C256.457 172.802 256.308 172.798 256.114 172.787C255.566 172.756 254.871 172.679 253.999 172.582C253.557 172.533 253.071 172.479 252.536 172.424C249.464 172.105 245.202 171.786 240.84 172.472C236.481 173.158 231.852 174.874 228.191 178.786C224.489 182.742 222.004 188.702 221.575 197.342L225.528 197.605C225.91 189.911 228.069 185.158 230.876 182.158C233.724 179.115 237.467 177.633 241.373 177.019C245.277 176.404 249.174 176.681 252.182 176.994C252.631 177.04 253.071 177.089 253.493 177.136C254.432 177.239 255.278 177.333 255.919 177.37C256.367 177.395 256.898 177.408 257.361 177.317C257.575 177.275 257.994 177.173 258.403 176.853Z" fill="white" fill-opacity="0.17"/>
<path fill-rule="evenodd" clip-rule="evenodd" d="M259.551 174.506C260.662 175.311 242.199 202.565 256.668 216.789L259.551 174.506Z" fill="white" fill-opacity="0.17"/>
<path fill-rule="evenodd" clip-rule="evenodd" d="M260.415 174.683C260.42 174.5 260.395 173.999 259.983 173.701L259.118 175.306C258.776 175.058 258.782 174.659 258.783 174.627C258.784 174.599 258.786 174.583 258.786 174.583C258.786 174.582 258.782 174.605 258.767 174.657C258.717 174.833 258.607 175.12 258.423 175.541C258.179 176.103 257.845 176.811 257.444 177.661C257.25 178.074 257.04 178.52 256.816 178.999C255.462 181.901 253.686 185.879 252.331 190.296C249.639 199.063 248.488 209.986 256.14 217.508L257.196 216.065C250.379 209.363 251.224 199.546 253.869 190.93C255.182 186.654 256.909 182.779 258.252 179.899C258.464 179.446 258.668 179.013 258.86 178.606C259.27 177.736 259.624 176.984 259.881 176.394C260.068 175.965 260.226 175.571 260.317 175.252C260.361 175.1 260.41 174.896 260.415 174.683Z" fill="white" fill-opacity="0.17"/>
<path fill-rule="evenodd" clip-rule="evenodd" d="M267.019 167.404C266.267 168.647 243.733 145.873 230.727 161.882L267.019 167.404Z" fill="white" fill-opacity="0.17"/>
<path fill-rule="evenodd" clip-rule="evenodd" d="M266.744 169.454C267.005 169.478 267.876 169.49 268.441 168.554L265.596 166.246C266.114 165.388 266.895 165.43 267.026 165.442C267.145 165.453 267.23 165.48 267.261 165.492C267.261 165.492 267.261 165.492 267.26 165.492C267.18 165.455 266.989 165.348 266.638 165.116C266.18 164.812 265.608 164.404 264.906 163.903C264.558 163.655 264.178 163.384 263.764 163.092C261.323 161.369 257.937 159.073 254.134 157.243C246.645 153.641 236.763 151.513 229.462 160.498L231.991 163.258C237.697 156.235 245.585 157.489 252.802 160.961C256.352 162.668 259.554 164.833 261.956 166.529C262.324 166.789 262.68 167.043 263.018 167.284C263.755 167.809 264.407 168.274 264.915 168.61C265.278 168.851 265.661 169.089 266 169.242C266.155 169.312 266.427 169.424 266.744 169.454ZM267.275 165.498C267.275 165.497 267.27 165.495 267.261 165.492C267.271 165.496 267.275 165.498 267.275 165.498Z" fill="white" fill-opacity="0.17"/>
<path fill-rule="evenodd" clip-rule="evenodd" d="M397.739 128.793C399.066 128.793 284.189 135.64 268.996 173.566L397.739 128.793Z" fill="white" fill-opacity="0.17"/>
<path fill-rule="evenodd" clip-rule="evenodd" d="M397.824 125.349L397.739 125.348V132.231L397.667 132.23C397.628 132.228 397.506 132.22 397.425 132.21C397.166 132.164 395.087 130.313 394.979 127.553C395.707 126.293 397.002 125.46 397.175 125.414C397.239 125.4 397.337 125.382 397.369 125.377L397.432 125.369L397.458 125.366L397.467 125.365C397.468 125.365 397.458 125.366 397.43 125.368L397.328 125.377L396.482 125.442C395.705 125.501 394.524 125.594 392.992 125.726C389.929 125.989 385.467 126.406 380.028 127.027C369.158 128.267 354.361 130.319 339.028 133.568C323.72 136.812 307.756 141.273 294.605 147.372C281.646 153.381 270.621 161.333 266.303 172.114L271.69 175.012C274.968 166.829 284 159.703 296.812 153.762C309.431 147.91 324.953 143.548 340.097 140.339C355.216 137.135 369.84 135.105 380.61 133.877C385.993 133.263 390.406 132.849 393.431 132.59C394.943 132.46 396.108 132.368 396.875 132.309L397.731 132.244C397.816 132.237 397.903 132.23 397.966 132.224L398.044 132.215L398.12 132.205C398.156 132.2 398.257 132.181 398.323 132.167C398.497 132.121 399.793 131.288 400.522 130.027C400.414 127.267 398.334 125.416 398.074 125.369C398.039 125.365 397.997 125.361 397.956 125.358C397.9 125.353 397.848 125.35 397.824 125.349Z" fill="white" fill-opacity="0.17"/>
<path fill-rule="evenodd" clip-rule="evenodd" d="M397.738 128.793C399.065 128.793 312.67 138.553 295.816 118.206L397.738 128.793Z" fill="white" fill-opacity="0.17"/>
<path fill-rule="evenodd" clip-rule="evenodd" d="M398.049 125.366C397.89 125.347 397.763 125.348 397.738 125.348V132.231L397.736 132.231C397.714 132.231 397.598 132.231 397.45 132.214C397.349 132.2 397.046 132.133 396.847 132.068C396.318 131.804 394.924 129.838 394.879 127.925C395.304 126.845 396.286 125.799 396.568 125.636C396.695 125.576 396.896 125.497 396.968 125.473C397.083 125.437 397.174 125.417 397.194 125.413L397.196 125.413C397.235 125.404 397.266 125.399 397.278 125.397C397.273 125.397 397.262 125.399 397.247 125.401C397.154 125.414 396.973 125.438 396.696 125.47C396.152 125.535 395.299 125.628 394.175 125.74C391.929 125.965 388.62 126.265 384.556 126.562C376.423 127.156 365.29 127.736 353.606 127.684C341.903 127.633 329.739 126.948 319.509 125.042C314.394 124.089 309.842 122.845 306.107 121.266C302.336 119.67 299.62 117.824 297.959 115.819L293.673 120.585C296.226 123.666 299.896 125.966 304.07 127.731C308.281 129.512 313.233 130.844 318.567 131.838C329.235 133.825 341.747 134.515 353.584 134.567C365.439 134.619 376.71 134.031 384.929 133.431C389.041 133.131 392.396 132.827 394.686 132.598C395.831 132.483 396.715 132.387 397.298 132.318C397.585 132.284 397.816 132.255 397.973 132.232L397.976 132.232C398.029 132.224 398.156 132.206 398.277 132.18L398.278 132.18C398.306 132.174 398.407 132.153 398.529 132.114C398.604 132.089 398.807 132.009 398.936 131.948C399.219 131.785 400.202 130.738 400.627 129.657C400.582 127.744 399.187 125.777 398.657 125.513C398.457 125.447 398.152 125.38 398.049 125.366Z" fill="white" fill-opacity="0.17"/>
<path fill-rule="evenodd" clip-rule="evenodd" d="M243.384 244.118C244.711 244.118 163.134 249.264 141.462 222.361L243.384 244.118Z" fill="white" fill-opacity="0.17"/>
<path fill-rule="evenodd" clip-rule="evenodd" d="M243.543 240.681C243.465 240.676 243.401 240.676 243.383 240.676V247.559L243.382 247.559C243.371 247.559 243.317 247.559 243.246 247.555C243.2 247.552 243.068 247.538 242.982 247.526C242.767 247.481 241.578 246.837 240.85 245.885C240.51 243.322 242.166 240.988 242.544 240.823C242.665 240.784 242.847 240.737 242.906 240.725C242.991 240.709 243.058 240.701 243.069 240.699L243.07 240.699C243.098 240.696 243.116 240.694 243.114 240.694C243.113 240.694 243.1 240.696 243.072 240.698C242.979 240.705 242.803 240.717 242.545 240.732C242.032 240.762 241.228 240.803 240.168 240.847C238.048 240.934 234.914 241.029 231.045 241.06C223.301 241.122 212.639 240.925 201.278 239.897C189.901 238.867 177.912 237.01 167.481 233.785C156.951 230.529 148.464 226.012 143.632 220.013L139.29 224.709C145.293 232.162 155.131 237.09 165.95 240.435C176.869 243.812 189.255 245.713 200.815 246.759C212.392 247.807 223.229 248.005 231.085 247.943C235.016 247.911 238.206 247.815 240.378 247.725C241.464 247.681 242.298 247.638 242.845 247.606C243.116 247.59 243.327 247.576 243.465 247.565C243.516 247.562 243.612 247.554 243.699 247.543L243.701 247.543C243.72 247.541 243.794 247.532 243.885 247.514C243.946 247.501 244.13 247.454 244.252 247.415C244.632 247.25 246.288 244.916 245.948 242.352C245.219 241.399 244.03 240.755 243.813 240.711C243.726 240.698 243.592 240.684 243.543 240.681Z" fill="white" fill-opacity="0.17"/>
<path fill-rule="evenodd" clip-rule="evenodd" d="M461.892 37.7151C463.219 37.7151 445.354 53.0696 409.626 68.8906L461.892 37.7151Z" fill="white" fill-opacity="0.17"/>
<path fill-rule="evenodd" clip-rule="evenodd" d="M463.401 34.7298C462.758 34.3087 462.157 34.2736 461.893 34.2736V41.1565C461.67 41.1565 461.101 41.129 460.48 40.7228C459.711 40.2192 459.168 39.33 459.027 38.2964C458.914 37.4621 459.1 36.8217 459.183 36.5738C459.28 36.2813 459.391 36.0778 459.443 35.9873C459.521 35.8512 459.587 35.7634 459.61 35.7351C459.595 35.7517 459.562 35.7894 459.504 35.8502C459.199 36.169 458.579 36.7411 457.589 37.557C455.64 39.1634 452.5 41.5168 448.18 44.3835C439.548 50.1107 426.289 57.8285 408.567 65.676L410.687 72.1055C428.694 64.1319 442.231 56.2619 451.131 50.3565C455.577 47.4069 458.888 44.9329 461.032 43.1658C462.088 42.2951 462.925 41.544 463.482 40.9613C463.706 40.7272 464.099 40.3051 464.391 39.7954C464.476 39.6468 464.611 39.3921 464.723 39.0557C464.82 38.7638 465.012 38.0867 464.894 37.2228C464.749 36.1597 464.193 35.2482 463.401 34.7298ZM459.618 35.725C459.618 35.7251 459.615 35.7285 459.61 35.7351C459.615 35.7283 459.618 35.725 459.618 35.725Z" fill="white" fill-opacity="0.17"/>
</svg>
